<svg xmlns="http://www.w3.org/2000/svg" viewBox="0 0 512 512" role="img" aria-label="Monstera">
  <!-- Background: rounded square, deep forest green -->
  <rect width="512" height="512" rx="112" fill="#166534"/>
  <!-- Lucide sprout icon, scaled from 24x24 to fit centered in ~300x300 area -->
  <!-- Original viewBox 0 0 24 24, scale factor ~12.5, translated to center -->
  <g transform="translate(68, 68) scale(15.5)" stroke="#bbf7d0" stroke-linecap="round" stroke-linejoin="round" stroke-width="1.75" fill="none">
    <path d="M14 9.536V7a4 4 0 0 1 4-4h1.5a.5.5 0 0 1 .5.5V5a4 4 0 0 1-4 4a4 4 0 0 0-4 4c0 2 1 3 1 5a5 5 0 0 1-1 3M4 9a5 5 0 0 1 8 4a5 5 0 0 1-8-4m1 12h14"/>
  </g>
</svg>
